<svg width="120" height="29" viewBox="0 0 120 29" fill="none" xmlns="http://www.w3.org/2000/svg">
<path d="M39.7605 15.4491C39.8803 15.3293 40.1198 15.2096 40.3593 15.2096H49.1018C50.4192 15.2096 51.1378 15.0898 51.3773 14.8503C51.9761 14.491 52.2156 14.012 52.2156 13.4132C52.2156 12.6946 51.8563 12.2156 51.018 11.8563C50.8982 11.7365 50.1797 11.7365 49.1018 11.7365H43.2336C41.3174 11.7365 40.1198 10.8982 39.521 9.1018C39.521 8.62276 39.521 8.26348 39.521 7.90419C39.521 6.22755 40.2396 5.1497 41.6767 4.43114C42.1557 4.31138 42.6348 4.19162 43.1138 4.19162H54.2515C54.4911 4.19162 54.7306 4.31138 54.8503 4.43114C55.0899 4.5509 55.0899 4.79042 55.0899 5.02994V5.98803C55.0899 6.22755 54.9701 6.46707 54.8503 6.58683C54.7306 6.70659 54.4911 6.82635 54.2515 6.82635H44.6707C43.4731 6.82635 42.8743 6.94611 42.7545 7.18563C42.6348 7.30539 42.515 7.54491 42.515 7.78443C42.515 8.26348 42.8743 8.62276 43.5929 8.74252C43.8324 8.74252 44.3114 8.74252 44.9102 8.74252H50.8982C52.6946 8.74252 54.012 9.58084 54.8503 11.3772C55.0899 11.9761 55.2096 12.5749 55.2096 13.1737C55.2096 14.8503 54.4911 16.1677 53.0539 17.1258C52.4551 17.485 51.7366 17.7246 50.8982 17.7246H40.4791C40.2396 17.7246 40 17.6048 39.8803 17.485C39.7605 17.3653 39.6408 17.1258 39.6408 16.8862V15.9281C39.521 15.8084 39.6408 15.5689 39.7605 15.4491Z" fill="#042F3D"/>
<path d="M66.2275 4.19162C68.3832 4.19162 70.1796 5.1497 71.6167 7.18563C72.3353 8.38324 72.6946 9.58084 72.6946 10.8982V11.3772C72.6946 13.5329 71.8562 15.3293 70.0598 16.7665C68.8622 17.6048 67.6646 18.0838 66.2275 18.0838H62.5149C60.479 18.0838 58.8023 17.2455 57.485 15.5689C56.5269 14.3713 56.0479 12.9341 56.0479 11.3772V10.8982C56.0479 8.86228 56.8862 7.06587 58.4431 5.74851C59.6407 4.79042 61.0778 4.31138 62.5149 4.31138H66.2275V4.19162ZM58.8023 11.018C58.8023 12.2156 59.2814 13.2934 60.3592 14.2515C61.0778 14.8503 62.1556 15.2096 63.473 15.2096H64.4311C66.1077 15.2096 67.0658 15.0898 67.3053 14.8503C68.1437 14.491 68.8622 13.7725 69.3413 12.8144C69.5808 12.2156 69.7005 11.6168 69.7005 11.018C69.7005 9.82036 69.1017 8.74252 68.0239 7.78443C67.3053 7.18563 66.3473 6.94611 64.9101 6.94611H63.952C62.3952 6.94611 61.4371 7.06587 61.0778 7.30539C60.7185 7.42515 60.1197 7.78443 59.5209 8.38324C59.1616 9.34132 58.8023 10.1796 58.8023 11.018Z" fill="#042F3D"/>
<path d="M73.8924 4.43114C74.0121 4.31138 74.2516 4.19162 74.4912 4.19162H75.4492C76.048 4.19162 76.2876 4.5509 76.2876 5.26946V9.46108C76.2876 11.1377 76.4073 12.0958 76.6468 12.4551C77.0061 13.4132 77.7247 14.2515 78.6828 14.7305C79.1618 15.0898 80.1199 15.2096 81.557 15.2096H88.2636C88.5031 15.2096 88.7426 15.3293 88.8624 15.4491C88.9822 15.5689 89.1019 15.8084 89.1019 16.0479V17.006C89.1019 17.2455 88.9822 17.485 88.8624 17.6048C88.7426 17.8443 88.6229 17.9641 88.2636 17.9641H80.1199C78.084 17.9641 76.4073 17.1258 75.09 15.4491C74.1319 14.2515 73.6528 12.8144 73.6528 11.2575V5.02994C73.6528 4.79042 73.6528 4.5509 73.8924 4.43114Z" fill="#042F3D"/>
<path d="M85.0299 17.006V16.0479C85.0299 15.8084 85.1497 15.5689 85.2694 15.4491C85.3892 15.3293 85.6287 15.2096 85.8682 15.2096H92.9341C94.3712 15.2096 95.3293 14.9701 96.0479 14.3713C97.1257 13.4132 97.7245 12.3353 97.7245 11.1377C97.7245 10.5389 97.6048 9.94011 97.2455 9.34131C96.7664 8.38323 96.0479 7.78443 95.2096 7.42514C94.8503 7.18562 93.8922 7.06586 92.2155 7.06586H89.2215C88.982 7.06586 88.7425 7.06586 88.503 7.06586C88.2635 7.06586 88.1437 7.18562 88.0239 7.18562C87.6646 7.30538 87.5449 7.78443 87.5449 8.74251V12.3353C87.5449 12.5748 87.4251 12.8144 87.3054 12.9341C87.1856 13.0539 86.9461 13.1736 86.7066 13.1736H85.7485C85.509 13.1736 85.2694 13.0539 85.1497 12.9341C85.0299 12.8144 84.9102 12.5748 84.9102 12.3353V5.14969C84.9102 4.91017 85.0299 4.67065 85.1497 4.55089C85.2694 4.43113 85.509 4.31137 85.7485 4.31137H93.8922C95.2096 4.31137 96.5269 4.67065 97.7245 5.62874C99.6407 6.9461 100.599 8.74251 100.599 10.7784V11.2575C100.599 12.5748 100.239 13.7724 99.5209 14.9701C98.0838 17.006 96.2874 17.9641 94.1317 17.9641H85.988C85.7485 17.9641 85.509 17.8443 85.3892 17.7245C85.1497 17.485 85.0299 17.3653 85.0299 17.006Z" fill="#042F3D"/>
<path d="M108.743 4.19162C109.341 4.19162 109.82 4.5509 110.06 5.26946C112.216 9.7006 112.335 9.82036 114.251 13.8922C115.21 15.8084 115.689 16.8862 115.808 17.1258C115.808 17.2455 115.808 17.2455 115.808 17.3653V17.485C115.808 17.8443 115.569 17.9641 115.21 17.9641H113.772C113.174 17.9641 112.695 17.485 112.335 16.5269C111.257 14.2515 110.419 12.5749 109.82 11.2575C109.222 9.94012 108.862 9.22156 108.623 8.86228C108.383 8.62276 108.263 8.503 108.144 8.503H108.024C107.665 8.503 107.305 9.1018 106.707 10.4192L103.353 17.3653C102.994 17.7246 102.635 17.9641 102.275 17.9641H100.838C100.479 17.9641 100.359 17.8443 100.239 17.6048V17.485V17.3653C100.239 17.1258 100.479 16.5269 100.958 15.5689C102.395 12.4551 103.593 10.0599 104.431 8.26348C105.269 6.46707 105.868 5.26946 106.108 4.79042C106.347 4.43114 106.707 4.19162 107.186 4.19162H108.743Z" fill="#2581AF"/>
<path d="M117.605 4.43114C117.725 4.31138 117.964 4.19162 118.204 4.19162H119.162C119.401 4.19162 119.641 4.31138 119.76 4.43114C119.88 4.5509 120 4.79042 120 5.1497V17.1258C120 17.3653 119.88 17.6048 119.76 17.7246C119.641 17.8443 119.401 17.9641 119.162 17.9641H118.204C117.964 17.9641 117.725 17.8443 117.605 17.7246C117.485 17.6048 117.365 17.3653 117.365 17.1258V5.1497C117.365 4.79042 117.485 4.5509 117.605 4.43114Z" fill="#2581AF"/>
<path d="M12.0958 28.2635C11.6168 28.2635 11.1377 28.024 11.018 27.4251C10.7784 26.8263 11.1377 26.1078 11.7365 25.8683C13.1737 25.2695 17.1257 23.3533 17.8443 20.7186L18.0838 19.8802H25.1497C27.6647 19.8802 29.8204 17.8443 29.8204 15.2096V7.06587C29.8204 4.5509 27.7844 2.39521 25.1497 2.39521H7.06587C4.5509 2.39521 2.39521 4.5509 2.39521 7.06587V15.3293C2.39521 17.8443 4.43114 20 7.06587 20H12.4551C13.1737 20 13.6527 20.5988 13.6527 21.1976C13.6527 21.9162 13.0539 22.3952 12.4551 22.3952H7.06587C3.11377 22.3952 0 19.1617 0 15.3293V7.06587C0 3.23353 3.11377 0 7.06587 0H25.1497C29.1018 0 32.2156 3.23353 32.2156 7.06587V15.3293C32.2156 19.2814 28.982 22.3952 25.1497 22.3952H19.7605C17.9641 26.1078 12.8144 28.1437 12.5749 28.2635C12.4551 28.2635 12.3353 28.2635 12.0958 28.2635Z" fill="#2581AF"/>
<path d="M9.58087 14.9701C7.54494 14.9701 5.74854 13.2934 5.74854 11.1377C5.74854 8.98206 7.54494 7.42517 9.58087 7.42517C11.6168 7.42517 13.4132 9.10182 13.4132 11.2575C13.4132 13.4132 11.7366 14.9701 9.58087 14.9701ZM9.58087 8.62278C8.14374 8.62278 7.0659 9.82038 7.0659 11.1377C7.0659 12.5749 8.26351 13.6527 9.58087 13.6527C11.018 13.6527 12.0958 12.4551 12.0958 11.1377C12.2156 9.82038 11.018 8.62278 9.58087 8.62278Z" fill="#2581AF"/>
<path d="M24.7903 13.4132C24.4311 13.4132 24.1915 13.1736 24.1915 12.8144C24.1915 11.3772 22.9939 10.2994 21.6766 10.2994C20.2394 10.2994 19.0418 11.497 19.0418 12.8144C19.0418 13.1736 18.8023 13.4132 18.443 13.4132C18.0838 13.4132 17.8442 13.1736 17.8442 12.8144C17.8442 10.7784 19.5209 8.98203 21.6766 8.98203C23.7125 8.98203 25.5089 10.6587 25.5089 12.8144C25.5089 13.1736 25.1496 13.4132 24.7903 13.4132Z" fill="#2581AF"/>
</svg>
